<svg width="179" height="53" viewBox="0 0 179 53" fill="none" xmlns="http://www.w3.org/2000/svg">
<path d="M26.1296 0C32.1748 7.20886e-08 38.033 2.0961 42.7061 5.93115C47.3791 9.7662 50.5778 15.1029 51.7571 21.032C52.9365 26.961 52.0236 33.1156 49.1739 38.447C46.3242 43.7784 41.714 47.9568 36.129 50.2702C30.5439 52.5836 24.3295 52.8889 18.5446 51.1341C12.7597 49.3792 7.76217 45.6729 4.40363 40.6464C1.04508 35.62 -0.466715 29.5846 0.125822 23.5685C0.718359 17.5523 3.37857 11.9278 7.65319 7.65318L13.9066 13.9065C11.0787 16.7344 9.31882 20.4553 8.92683 24.4353C8.53483 28.4152 9.53496 32.408 11.7568 35.7332C13.9786 39.0584 17.2847 41.5104 21.1117 42.6713C24.9387 43.8322 29.0499 43.6302 32.7447 42.0998C36.4395 40.5694 39.4893 37.8052 41.3745 34.2782C43.2597 30.7512 43.8637 26.6796 43.0835 22.7573C42.3033 18.8349 40.1872 15.3044 37.0957 12.7673C34.0043 10.2303 30.1288 8.84359 26.1296 8.84359V0Z" fill="url(#paint0_angular_1_792)"/>
<path d="M26.1299 10.4519C29.2306 10.4519 32.2618 11.3714 34.84 13.0941C37.4181 14.8168 39.4276 17.2653 40.6142 20.1301C41.8008 22.9948 42.1113 26.1471 41.5064 29.1883C40.9014 32.2295 39.4083 35.023 37.2157 37.2155C35.0231 39.4081 32.2296 40.9013 29.1884 41.5062C26.1472 42.1111 22.9949 41.8006 20.1302 40.614C17.2655 39.4274 14.8169 37.418 13.0943 34.8398C11.3716 32.2616 10.4521 29.2304 10.4521 26.1296L19.2646 26.1297C19.2646 27.4875 19.6672 28.8148 20.4216 29.9438C21.1759 31.0728 22.2481 31.9527 23.5026 32.4724C24.7571 32.992 26.1375 33.1279 27.4692 32.863C28.8009 32.5981 30.0242 31.9443 30.9843 30.9842C31.9445 30.024 32.5983 28.8008 32.8632 27.469C33.1281 26.1373 32.9922 24.7569 32.4725 23.5024C31.9529 22.248 31.073 21.1758 29.944 20.4214C28.815 19.667 27.4877 19.2644 26.1299 19.2644L26.1299 10.4519Z" fill="url(#paint1_angular_1_792)"/>
<path d="M67.2032 35.1296V18.0266H77.8091V20.248H69.7837V25.4591H77.0491V27.6721H69.7837V35.1296H67.2032ZM80.0766 35.1296V22.3024H82.5735V35.1296H80.0766ZM81.3376 20.3232C80.9033 20.3232 80.5303 20.1784 80.2185 19.8889C79.9123 19.5938 79.7592 19.2431 79.7592 18.8367C79.7592 18.4247 79.9123 18.0739 80.2185 17.7844C80.5303 17.4894 80.9033 17.3418 81.3376 17.3418C81.7718 17.3418 82.1421 17.4894 82.4483 17.7844C82.7601 18.0739 82.9159 18.4247 82.9159 18.8367C82.9159 19.2431 82.7601 19.5938 82.4483 19.8889C82.1421 20.1784 81.7718 20.3232 81.3376 20.3232ZM87.7242 27.5135V35.1296H85.2273V22.3024H87.624V24.3901H87.7827C88.0778 23.7109 88.5399 23.1653 89.169 22.7533C89.8037 22.3413 90.6026 22.1354 91.5657 22.1354C92.4398 22.1354 93.2053 22.3191 93.8623 22.6865C94.5192 23.0484 95.0287 23.5884 95.3905 24.3066C95.7524 25.0248 95.9334 25.9128 95.9334 26.9706V35.1296H93.4364V27.2713C93.4364 26.3415 93.1942 25.615 92.7098 25.0916C92.2255 24.5627 91.5602 24.2983 90.7139 24.2983C90.1349 24.2983 89.6199 24.4236 89.169 24.6741C88.7236 24.9246 88.3701 25.2921 88.1084 25.7764C87.8523 26.2552 87.7242 26.8342 87.7242 27.5135ZM102.31 35.4136C101.497 35.4136 100.762 35.2633 100.105 34.9626C99.4479 34.6564 98.9274 34.2138 98.5432 33.6348C98.1647 33.0558 97.9754 32.3459 97.9754 31.5053C97.9754 30.7815 98.1145 30.1858 98.3929 29.7181C98.6713 29.2505 99.0471 28.8802 99.5203 28.6074C99.9935 28.3346 100.522 28.1286 101.107 27.9895C101.692 27.8503 102.287 27.7445 102.894 27.6721C103.662 27.583 104.286 27.5107 104.765 27.455C105.244 27.3938 105.592 27.2963 105.809 27.1627C106.026 27.0291 106.134 26.812 106.134 26.5113V26.4529C106.134 25.7235 105.928 25.1584 105.516 24.7576C105.11 24.3567 104.503 24.1563 103.696 24.1563C102.855 24.1563 102.193 24.3428 101.708 24.7158C101.23 25.0833 100.898 25.4925 100.715 25.9434L98.3679 25.409C98.6462 24.6295 99.0527 24.0004 99.5871 23.5216C100.127 23.0373 100.748 22.6865 101.449 22.4694C102.151 22.2467 102.889 22.1354 103.662 22.1354C104.175 22.1354 104.717 22.1966 105.291 22.3191C105.87 22.436 106.41 22.6531 106.911 22.9705C107.418 23.2878 107.832 23.7415 108.155 24.3317C108.478 24.9163 108.64 25.6762 108.64 26.6115V35.1296H106.201V33.3759H106.101C105.94 33.6988 105.697 34.0162 105.374 34.3279C105.052 34.6397 104.637 34.8986 104.13 35.1046C103.623 35.3106 103.017 35.4136 102.31 35.4136ZM102.852 33.4093C103.543 33.4093 104.133 33.2729 104.623 33.0001C105.118 32.7273 105.494 32.371 105.75 31.9312C106.012 31.4858 106.143 31.0098 106.143 30.5031V28.8496C106.054 28.9387 105.881 29.0222 105.625 29.1002C105.374 29.1725 105.088 29.2366 104.765 29.2922C104.442 29.3423 104.127 29.3897 103.821 29.4342C103.515 29.4732 103.259 29.5066 103.053 29.5344C102.568 29.5957 102.126 29.6987 101.725 29.8434C101.33 29.9882 101.012 30.1969 100.773 30.4697C100.539 30.737 100.422 31.0933 100.422 31.5387C100.422 32.1567 100.65 32.6243 101.107 32.9417C101.564 33.2534 102.145 33.4093 102.852 33.4093ZM113.757 27.5135V35.1296H111.26V22.3024H113.657V24.3901H113.815C114.111 23.7109 114.573 23.1653 115.202 22.7533C115.836 22.3413 116.635 22.1354 117.598 22.1354C118.473 22.1354 119.238 22.3191 119.895 22.6865C120.552 23.0484 121.061 23.5884 121.423 24.3066C121.785 25.0248 121.966 25.9128 121.966 26.9706V35.1296H119.469V27.2713C119.469 26.3415 119.227 25.615 118.743 25.0916C118.258 24.5627 117.593 24.2983 116.747 24.2983C116.168 24.2983 115.653 24.4236 115.202 24.6741C114.756 24.9246 114.403 25.2921 114.141 25.7764C113.885 26.2552 113.757 26.8342 113.757 27.5135ZM130.013 35.3885C128.771 35.3885 127.702 35.1074 126.806 34.5451C125.915 33.9772 125.23 33.195 124.751 32.1984C124.273 31.2018 124.033 30.0605 124.033 28.7745C124.033 27.4717 124.278 26.322 124.768 25.3255C125.258 24.3233 125.948 23.5411 126.839 22.9788C127.73 22.4165 128.779 22.1354 129.987 22.1354C130.962 22.1354 131.83 22.3163 132.593 22.6782C133.356 23.0345 133.971 23.5356 134.439 24.1814C134.912 24.8272 135.193 25.5816 135.282 26.4445H132.852C132.718 25.8432 132.412 25.3255 131.933 24.8912C131.46 24.457 130.825 24.2398 130.029 24.2398C129.333 24.2398 128.724 24.4236 128.2 24.791C127.683 25.1529 127.279 25.6706 126.989 26.3443C126.7 27.0124 126.555 27.803 126.555 28.716C126.555 29.6513 126.697 30.4586 126.981 31.1378C127.265 31.817 127.666 32.3432 128.184 32.7162C128.707 33.0892 129.322 33.2757 130.029 33.2757C130.502 33.2757 130.931 33.1894 131.315 33.0168C131.705 32.8387 132.031 32.5853 132.292 32.2569C132.56 31.9284 132.746 31.5331 132.852 31.071H135.282C135.193 31.9006 134.923 32.641 134.472 33.2924C134.021 33.9438 133.417 34.456 132.66 34.829C131.908 35.202 131.026 35.3885 130.013 35.3885ZM142.775 35.3885C141.511 35.3885 140.423 35.1185 139.51 34.5785C138.602 34.0329 137.901 33.2673 137.405 32.2819C136.916 31.2909 136.671 30.1301 136.671 28.7995C136.671 27.4856 136.916 26.3276 137.405 25.3255C137.901 24.3233 138.591 23.5411 139.477 22.9788C140.367 22.4165 141.408 22.1354 142.6 22.1354C143.324 22.1354 144.025 22.2551 144.704 22.4945C145.384 22.7338 145.993 23.1096 146.533 23.6218C147.073 24.134 147.499 24.7993 147.811 25.6178C148.123 26.4306 148.279 27.4188 148.279 28.5824V29.4676H138.082V27.597H145.832C145.832 26.94 145.698 26.3582 145.431 25.8516C145.164 25.3394 144.788 24.9358 144.303 24.6407C143.825 24.3456 143.262 24.1981 142.617 24.1981C141.915 24.1981 141.303 24.3707 140.779 24.7158C140.262 25.0554 139.861 25.5008 139.577 26.052C139.298 26.5976 139.159 27.1905 139.159 27.8308V29.2922C139.159 30.1496 139.31 30.8789 139.61 31.4802C139.916 32.0815 140.342 32.5408 140.888 32.8581C141.434 33.1699 142.071 33.3258 142.8 33.3258C143.274 33.3258 143.705 33.259 144.095 33.1254C144.484 32.9862 144.821 32.7802 145.105 32.5074C145.389 32.2346 145.606 31.8978 145.757 31.4969L148.12 31.9228C147.931 32.6187 147.591 33.2284 147.101 33.7517C146.617 34.2695 146.007 34.6731 145.272 34.9626C144.543 35.2466 143.711 35.3885 142.775 35.3885ZM150.31 35.1296V33.259L156.097 27.2629C156.715 26.6115 157.225 26.0409 157.626 25.5509C158.032 25.0554 158.336 24.585 158.536 24.1396C158.736 23.6942 158.837 23.221 158.837 22.7199C158.837 22.1521 158.703 21.6621 158.436 21.2501C158.169 20.8326 157.804 20.5125 157.342 20.2898C156.88 20.0615 156.359 19.9474 155.78 19.9474C155.168 19.9474 154.633 20.0726 154.177 20.3232C153.72 20.5737 153.369 20.9272 153.124 21.3838C152.88 21.8403 152.757 22.3748 152.757 22.9872H150.293C150.293 21.9461 150.533 21.0358 151.012 20.2564C151.49 19.4769 152.147 18.8729 152.983 18.4442C153.818 18.0099 154.767 17.7928 155.83 17.7928C156.905 17.7928 157.851 18.0071 158.67 18.4358C159.494 18.8589 160.137 19.438 160.599 20.1728C161.061 20.9022 161.292 21.7262 161.292 22.6448C161.292 23.2795 161.172 23.9002 160.933 24.5071C160.699 25.1139 160.29 25.7903 159.705 26.5364C159.121 27.2768 158.308 28.176 157.267 29.2338L153.868 32.7913V32.9166H161.567V35.1296H150.31ZM163.3 31.7892V29.7014L170.691 18.0266H172.336V21.0998H171.292L166.006 29.4676V29.6012H176.136V31.7892H163.3ZM171.409 35.1296V31.1545L171.426 30.2025V18.0266H173.873V35.1296H171.409Z" fill="#111111"/>
<defs>
<radialGradient id="paint0_angular_1_792" cx="0" cy="0" r="1" gradientUnits="userSpaceOnUse" gradientTransform="translate(26.1296 26.1296) rotate(-90) scale(29.0039)">
<stop stop-color="#00C5EC"/>
<stop offset="0.4375" stop-color="#3947F8"/>
<stop offset="0.875" stop-color="#C0AAFF"/>
</radialGradient>
<radialGradient id="paint1_angular_1_792" cx="0" cy="0" r="1" gradientUnits="userSpaceOnUse" gradientTransform="translate(26.1298 26.1297) scale(17.4023)">
<stop stop-color="#FFE600"/>
<stop offset="0.401042" stop-color="#EF4E20"/>
<stop offset="0.776042" stop-color="#FFA4A4"/>
</radialGradient>
</defs>
</svg>
