<svg width="14" height="14" viewBox="0 0 14 14" fill="none" xmlns="http://www.w3.org/2000/svg">
<path d="M7 0C8.61949 1.93122e-08 10.1889 0.561535 11.4408 1.58893C12.6926 2.61632 13.5496 4.046 13.8655 5.63437C14.1814 7.22274 13.9369 8.87152 13.1734 10.2998C12.41 11.728 11.175 12.8474 9.67878 13.4672C8.18257 14.0869 6.51776 14.1687 4.96801 13.6986C3.41825 13.2285 2.07945 12.2355 1.17971 10.889C0.279973 9.54244 -0.125031 7.92557 0.0337071 6.31388C0.192445 4.70219 0.905104 3.1954 2.05025 2.05025L3.7255 3.7255C2.96793 4.48307 2.49647 5.47989 2.39146 6.5461C2.28644 7.61231 2.55437 8.68195 3.14959 9.57276C3.74481 10.4636 4.6305 11.1204 5.65574 11.4314C6.68097 11.7424 7.78233 11.6883 8.77215 11.2783C9.76196 10.8683 10.579 10.1278 11.084 9.18297C11.5891 8.2381 11.7509 7.14735 11.5419 6.09657C11.3328 5.04578 10.766 4.09998 9.93778 3.42031C9.1096 2.74064 8.07137 2.36916 7 2.36916V0Z" fill="url(#paint0_angular_1_1047)"/>
<path d="M7.0002 2.80005C7.83088 2.80005 8.6429 3.04637 9.33359 3.50788C10.0243 3.96938 10.5626 4.62533 10.8805 5.39278C11.1984 6.16023 11.2816 7.00471 11.1195 7.81943C10.9574 8.63415 10.5574 9.38252 9.97004 9.9699C9.38266 10.5573 8.63429 10.9573 7.81957 11.1193C7.00485 11.2814 6.16037 11.1982 5.39292 10.8803C4.62547 10.5625 3.96952 10.0241 3.50802 9.33344C3.04652 8.64275 2.80019 7.83073 2.80019 7.00004L5.16102 7.00005C5.16102 7.3638 5.26888 7.71939 5.47097 8.02184C5.67306 8.32429 5.9603 8.56002 6.29637 8.69923C6.63244 8.83843 7.00223 8.87485 7.359 8.80389C7.71576 8.73292 8.04348 8.55776 8.30069 8.30055C8.5579 8.04333 8.73307 7.71562 8.80403 7.35886C8.875 7.00209 8.83858 6.63229 8.69937 6.29623C8.56017 5.96016 8.32444 5.67292 8.02199 5.47083C7.71954 5.26874 7.36395 5.16087 7.00019 5.16087L7.0002 2.80005Z" fill="url(#paint1_angular_1_1047)"/>
<defs>
<radialGradient id="paint0_angular_1_1047" cx="0" cy="0" r="1" gradientUnits="userSpaceOnUse" gradientTransform="translate(7 7) rotate(-90) scale(7.77)">
<stop stop-color="#00C5EC"/>
<stop offset="0.4375" stop-color="#3947F8"/>
<stop offset="0.875" stop-color="#C0AAFF"/>
</radialGradient>
<radialGradient id="paint1_angular_1_1047" cx="0" cy="0" r="1" gradientUnits="userSpaceOnUse" gradientTransform="translate(7.00019 7.00005) scale(4.662)">
<stop stop-color="#FFE600"/>
<stop offset="0.401042" stop-color="#EF4E20"/>
<stop offset="0.776042" stop-color="#FFA4A4"/>
</radialGradient>
</defs>
</svg>
